<svg xmlns="http://www.w3.org/2000/svg" viewBox="0 0 114.94 200.55"><path d="M1.47 10.31c-.43-.14-1 .75-1.3.4-.68-.8.9-2.1.9-2.1A18 18 0 014 6.51a16.88 16.88 0 013.8-1q2.82-.55 5.69-.9c1.13-.13 2.28-.05 3.4-.2 1.38-.18 2.71-.71 4.1-.8 1.87-.11 3.73.26 5.6.2a33.88 33.88 0 004-.5 9 9 0 002-.4c1-.39 1.86-1.18 2.9-1.5a30.83 30.83 0 014.3-.7 49.28 49.28 0 015-.7 20.81 20.81 0 014.09.3 40 40 0 015.2 1.2A20.49 20.49 0 0158 3.11a24.22 24.22 0 013.6 2.6 8.21 8.21 0 011.4 1.6c.64.92 1.1 2 1.7 2.9a15.44 15.44 0 001 1.4c.42.55.92 1 1.3 1.6.66 1 1.18 2.08 1.8 3.1.78 1.28 1.55 2.56 2.4 3.8 1.15 1.67 2.37 3.28 3.6 4.9 1.1 1.45 2.39 2.77 3.4 4.3 1.2 1.81 2.17 3.77 3.19 5.69 1.48 2.75 3 5.49 4.3 8.3.57 1.19.72 2.57 1.4 3.7.48.79 1.38 1.23 2 1.9a19.86 19.86 0 011.8 2.2c.9 1.29 1.62 2.7 2.5 4a5.5 5.5 0 001.1 1.3c.8.63 1.79 1 2.6 1.6a15.25 15.25 0 012.3 2.1 21.83 21.83 0 012.9 3.8 37.7 37.7 0 011.7 4.6c1.45 3.77 3.1 7.46 4.4 11.29.6 1.79.67 3.73 1.3 5.5s1.91 3.59 2.6 5.5a53.8 53.8 0 012.1 7.5 34.7 34.7 0 01.5 5.29 57.6 57.6 0 010 6.7c0 .36-.41 1.21-.6.9a6.41 6.41 0 01-.4-2.5 27.07 27.07 0 00-.6-3.8c-.82-2.59-2-5.06-3-7.59-.17 1.6-.41 3.19-.5 4.8a31.25 31.25 0 010 4c-.16.85-.94 1.48-1.2 2.3-.55 1.73-.79 3.54-1.2 5.3q-1.78 7.75-3.6 15.5c-.64 2.73-1.13 5.5-1.9 8.2a27 27 0 01-1.4 3.4 8.42 8.42 0 01-1.4 2.79 1.69 1.69 0 01-1.7.2c-.47-.18-.65-.76-.9-1.2s-.53-1.13-.8-1.7a22.94 22.94 0 00-1.6 2.8c-.68 1.75-1.65 3.53-1.6 5.4a46.77 46.77 0 002.1 11.4c1.47 5.05 3.7 9.85 5.5 14.8a80.16 80.16 0 013 8.59 5.69 5.69 0 01-.3 2.7 5.28 5.28 0 01-.9 1.9 6.14 6.14 0 01-1.4 1 13.47 13.47 0 01-.2 2.3 6.33 6.33 0 01-1.1 2.4 8.24 8.24 0 01-2.4 1.9 8.74 8.74 0 01-2.9 1.1 8 8 0 01-2.2-.3 9.83 9.83 0 01-2.2 1.2 7.9 7.9 0 01-2.7 0 7.79 7.79 0 01-1.8-.5c-1.08-.41-2.13-.93-3.19-1.4a13.83 13.83 0 01-2 2.9 6.21 6.21 0 01-2.8 1.2 13.18 13.18 0 01-4.2.2 17.62 17.62 0 01-4.1-1.3 9 9 0 01-1.4-.9 7.08 7.08 0 01-1.5 1.3 5.86 5.86 0 01-2.9.7 5.91 5.91 0 01-2.8-1.3 11.54 11.54 0 01-2.6-2.8 22.75 22.75 0 01-2.3-4.7 34.63 34.63 0 01-1.4-5.7c-.61-3.64-1.14-7.31-1.4-11-.58-8.49-.73-17-1.1-25.5a31.91 31.91 0 01-3.5-1.4 9.51 9.51 0 01-2-1.6c-.53-.51-.81-1.27-1.4-1.7a10.59 10.59 0 00-2.2-.9 16 16 0 00-1.4 1 3.5 3.5 0 00-.8 1c-.28.54-.33 1.17-.6 1.7-.47.94-1.22 1.73-1.6 2.7a23.22 23.22 0 00-.9 3.7c-.24 1.09-.28 2.23-.6 3.3a14.37 14.37 0 01-1.5 3.7c-.39.6-1.17.82-1.7 1.3a5.88 5.88 0 00-1.6 1.7 40.38 40.38 0 00-2.1 6.2c-.6 2.1-.83 4.31-1.5 6.4s-.58 2.82-1.41 4.56l-.63 1.61-.09.71 1.3.54 1.33.44h1.57l1.42-.22 1.12-.54 1.24-.89 1.07-.27h2.1l1.69.63 1.07 1 .22.76-.09 1.43-1.07-1.83s-1.87-.71-2.09-.71h-1.69l-.45.49-.27 1.7c-.18.36-.35.73-.53 1.09h-2.23l-1.92-.14-2.18.54-2-.63-1.56-.18-1.56.32-1.87.84-3 .76-2-.18-1.65-.71-.23.58-.35 1.25-.27-1.83h-.94l-1.23.52-2.15-.3c-.11-.22-.21-.44-.31-.67l-.36-.53-.63-.27-1.56.54-.92 2.22.13-2.28.58-1.07 1.5-.48h1.38l1.56-.75h1.61l1.82.31 2.63.31 1.92-.53.59-.31a12.88 12.88 0 002-1.9 23.68 23.68 0 001-2.5c.51-1 1.28-1.75 1.8-2.7s1.09-2.25 1.6-3.39c.76-1.69 1.58-3.36 2.2-5.1a31 31 0 001.3-4.8 10.28 10.28 0 000-2.6c-.06-.81-.27-1.6-.4-2.4a12.4 12.4 0 01-.4-2.4c0-.79.49-1.51.6-2.3.16-1.16 0-2.35.2-3.5.3-1.41 1.11-2.68 1.4-4.1a33.49 33.49 0 00.4-4.7 32.06 32.06 0 00.1-4.49c-.17-1.92-.81-3.78-1-5.7-.38-3.86-.64-7.73-.7-11.6 0-2.47.31-4.93.4-7.4.07-2 .2-4.06.1-6.1-.07-1.44-.4-2.86-.6-4.29-.23 1.06-.5 2.12-.7 3.19-.13.73.06 1.56-.3 2.2a.84.84 0 01-1.1.3 3.07 3.07 0 01-.7-1.8 33.86 33.86 0 01-.6-4.49c-.14-2.17-.12-4.34-.1-6.5 0-1.77 0-3.54.2-5.3a40.83 40.83 0 01.9-5.4c.34-1.37 1-2.64 1.4-4s.57-3.09 1-4.6c.61-2.13 1.28-4.24 2.1-6.3 1.08-2.71 2.38-5.34 3.6-8 .84-1.85 1.68-3.69 2.6-5.5.78-1.56 1.81-3 2.5-4.6a11.79 11.79 0 00.9-3.4 40.75 40.75 0 000-5.3c0-1.67-.1-3.34-.3-5a27.64 27.64 0 00-1-5.59 14.31 14.31 0 00-2.2-3.7c-1-1.33-2.22-2.46-3.3-3.7s-2.2-2.86-3.5-4.1a14.84 14.84 0 00-3.4-2.5 16.79 16.79 0 00-3.1-.8c-1.17-.34-2.34-.71-3.5-1.1-1-.34-2-.73-3-1.1 0 0-4.3-.4-4.8-.4a30.49 30.49 0 01-3.69-1.3c-1.27-.47-2.58-.83-3.8-1.4s-2-1.44-3.1-1.8z" fill="#fff" fill-rule="evenodd"/></svg>