<svg xmlns="http://www.w3.org/2000/svg" viewBox="0 0 395.74 171.74"><path d="M345.2 171.74H216.47a9.91 9.91 0 01-6.24-3 9.62 9.62 0 01-2.6-6.46V15.2a8.9 8.9 0 011.86-5.81 11.77 11.77 0 015.32-3.55 86.77 86.77 0 0115.32-4.35 86 86 0 01100.75 71.42c1.42-.41 2.88-.77 4.36-1.07a50.46 50.46 0 1110 99.9z" fill="#fff"/><path d="M198 164.1c0 2.87-1.36 5.2-3 5.2s-3-2.33-3-5.17l-.59-19.13-.62-19.64L192 19v-.54a7.29 7.29 0 011.12-4 2.41 2.41 0 011.88-1.22 2.12 2.12 0 011.53.73 6.94 6.94 0 011.47 4.46l1.33 106.88L198 164.1zM176.72 160.73l-.11 3.88a7.27 7.27 0 01-.84 3.46 2.45 2.45 0 01-2 1.42 2.63 2.63 0 01-2.16-1.77 7 7 0 01-.65-2.91.86.86 0 010-.17s-1.08-39.32-1.08-39.39l1.06-97v-.93a6.34 6.34 0 011.3-4.09 2 2 0 011.52-.79 2.07 2.07 0 011.54.84 6.38 6.38 0 011.26 4l1.19 98-1.08 35.44zM160.16 164.9c0 2.55-1.18 4.53-2.62 4.53s-2.59-2-2.63-4.51l-1.18-39.63L154.91 43c0-2.55 1.18-4.55 2.63-4.55s2.6 2 2.62 4.55l1.32 82.34zM143.83 165.14c0 2.35-1.1 4.22-2.44 4.22s-2.39-1.87-2.42-4.2l-1.29-39.87L139 39.82c0-2.37 1.11-4.21 2.43-4.21s2.4 1.84 2.44 4.21l1.45 85.45-1.45 39.87zM127.64 165.5c0 2.17-1 3.88-2.25 3.88s-2.21-1.71-2.24-3.86l-1.41-40.25 1.41-87.69c0-2.17 1-3.88 2.24-3.88s2.21 1.71 2.25 3.88l1.56 87.69-1.56 40.23zM111.55 165.76c0 2-.94 3.55-2 3.55s-2-1.55-2.06-3.53l-1.5-40.49 1.5-84.85c0-2 1-3.55 2.06-3.55s2 1.58 2 3.55l1.71 84.85-1.71 40.49zM95.36 166.41c0 1.8-.87 3.22-1.88 3.22s-1.8-1.42-1.86-3.22L90 125.47l1.62-78.3c.06-1.8.87-3.22 1.86-3.22s1.83 1.42 1.88 3.22l1.84 78.3-1.84 40.94zM79.77 166.43c0 1.62-.79 2.91-1.68 2.91s-1.64-1.29-1.69-2.89l-1.72-41.18 1.72-63.75c0-1.62.8-2.9 1.69-2.9s1.63 1.28 1.68 2.88l2 63.75-2 41.18zM64.06 166.41c0 1.46-.7 2.55-1.48 2.55s-1.44-1.09-1.49-2.55l-1.85-41.18 1.85-39.17c0-1.46.68-2.55 1.49-2.55S64 84.6 64.06 86l2.09 39.19zM48.49 166.08c-.06 1.26-.63 2.21-1.3 2.21s-1.25-.95-1.32-2.21l-1.95-40.86L45.87 83c.07-1.26.63-2.22 1.32-2.22s1.24 1 1.3 2.22l2.22 42.22zM33 164.81c-.06 1.11-.54 1.89-1.11 1.89s-1.05-.78-1.11-1.89l-2.07-39.58 2.07-41.1c.05-1.1.52-1.9 1.11-1.9S33 83 33 84.13l2.35 41.1zM17.7 159.09c-.08.9-.46 1.55-.93 1.55s-.86-.65-.93-1.55l-2.18-33.89 2.18-34.63c.07-.89.47-1.56.93-1.56s.85.65.93 1.56l2.47 34.63zM3.39 146.28c-.07.87-.43 1.49-.89 1.49s-.82-.62-.88-1.51L0 125.2l1.62-21.41c.06-.88.42-1.51.88-1.51s.82.63.89 1.51l1.93 21.43z" fill="#fff"/></svg>