<svg xmlns="http://www.w3.org/2000/svg" viewBox="0 0 128 128"><path d="M64 0a64 64 0 1064 64A64.19 64.19 0 0064 0m29.44 92.48A3.8 3.8 0 0188 93.76c-15-9.28-33.92-11.2-56.32-6.08A4 4 0 0129.76 80c24.32-5.44 45.44-3.2 62.08 7 2.24 1 2.56 3.52 1.6 5.44m7.68-17.6c-1.6 2.24-4.48 3.2-6.72 1.6-17.28-10.52-43.52-13.72-63.68-7.32-2.56.64-5.44-.64-6.08-3.2s.64-5.44 3.2-6.08c23.36-7 52.16-3.52 72 8.64a4.52 4.52 0 011.28 6.4m.64-17.88C81.28 44.8 47 43.52 27.52 49.6A5.87 5.87 0 1124 38.4c22.72-6.72 60.16-5.4 83.84 8.6a6.19 6.19 0 012.24 8.32 6.71 6.71 0 01-8.32 1.6" fill="#fff" fill-rule="evenodd"/></svg>