<svg xmlns="http://www.w3.org/2000/svg" viewBox="0 0 400 135.29"><path id="path4925" class="cls-1" d="M74.29 2.35L0 135.29h142.53l74.3-132.94z" fill="#fff"/><path d="M224.43 0v133.18H243v-7.68a30.38 30.38 0 0022.89 9.79c11.28 0 21.16-4.71 29.14-13.82s12-22.21 12-38.56a66.78 66.78 0 00-2.82-19.63 49.92 49.92 0 00-7.89-15.86 34.6 34.6 0 00-13-10.4 39.09 39.09 0 00-16.67-3.66 31.64 31.64 0 00-22.54 9.12V0h-19.68zm40.84 50.84c6 0 10.93 2.49 15.28 7.88 4.2 5.2 6.52 13.64 6.52 25.51 0 11.56-2.39 19.93-6.8 25.37-4.56 5.6-9.62 8.18-15.67 8.18-7.52 0-13.16-3.47-17.68-11.12-2.57-4.34-4.1-12.09-4.1-23.06s2.36-19.12 6.8-24.58 9.61-8.2 15.66-8.2z" fill="#fff"/><path d="M360 33.36a44.85 44.85 0 00-22.6 5.94 36.76 36.76 0 00-15.67 18.05c-3.38 7.88-5 17-5 27.32 0 15.94 3.88 28.53 11.85 37.38s18.55 13.24 31.38 13.24c10.29 0 19.19-3.23 26.35-9.64s11.64-15.38 13.35-26.49l.35-2.29-2.21-.29-15.05-2-2.13-.28-.31 2.21c-1 7.56-3.42 12.85-7 16.2a18.7 18.7 0 01-13.56 5.12 20 20 0 01-16.53-7.72c-4.14-5-6.46-13.61-6.46-25.85 0-12 2.39-20.5 6.69-25.6 4.44-5.26 9.95-7.79 17.14-7.79a16.82 16.82 0 0111.64 4.21c3.16 2.78 5.47 7 6.81 12.92l.46 2 2-.32 14.87-2.38 2.23-.35-.43-2.28c-1.83-9.84-6.1-17.68-12.76-23.15S370.2 33.36 360 33.36z" fill="#fff"/></svg>