<svg xmlns="http://www.w3.org/2000/svg" viewBox="0 0 51.11 28.51"><path d="M31.34 28.51h9.31v-2.82h-9.32v2.82zm-20.89 0h9.31v-2.82h-9.31v2.82zM0 28.51h9.32v-2.82H0zm20.89 0h9.33v-2.82h-9.33zm20.9 0h9.32v-2.82h-9.32zm0-3.67h9.32V22h-9.32v2.81zm-20.9 0h9.35V22h-9.35v2.81zM0 24.84h9.33V22H0v2.81zm10.46 0h9.32V22h-9.32v2.81zm20.93 0h9.33V22h-9.37v2.86zm0-3.66h9.33v-2.81h-9.37v2.83zm-20.88 0h9.28v-2.81h-9.33v2.83zm-10.45 0h9.29v-2.81H0v2.83zm20.89 0h9.33v-2.81h-9.37v2.83zm20.92 0h9.24v-2.81h-9.32v2.83h.06zm0-3.66h9.24v-2.84h-9.32v2.83h.08zm-20.87 0h9.29v-2.84h-9.38v2.83H21zm-20.9 0h9.27v-2.84H0v2.83h.1zm31.36 0h9.33v-2.84h-9.43v2.83h.1zm0-3.66h9.33V11h-9.43v2.81h.09zm-31.36 0h9.27v-2.81H0v2.81h.1zm20.89 0h9.32v-2.81h-9.42v2.81H21zm20.88 0h9.24V11h-9.32v2.83h.08zm-21-3.69h9.33V7.35h-9.31zm20.9 0h9.32V7.34h-9.3zM20.89 6.5h9.33V3.67h-9.33zm20.9 0h9.32V3.67h-9.32zm0-3.68h9.32V0h-9.32z" fill="#fff"/></svg>